<mxfile host="app.diagrams.net" modified="2020-12-04T06:23:58.077Z" agent="5.0 (Windows NT 10.0; Win64; x64) AppleWebKit/537.36 (KHTML, like Gecko) Chrome/87.0.4280.88 Safari/537.36" etag="VbrHBNRnA9O029Sbvi0O" version="13.10.4" type="github">
  <diagram id="pKuOKmfb3nkxHnhGuvDm" name="Page-1">
    <mxGraphModel dx="868" dy="1582" grid="1" gridSize="10" guides="1" tooltips="1" connect="1" arrows="1" fold="1" page="1" pageScale="1" pageWidth="850" pageHeight="1100" math="0" shadow="0">
      <root>
        <mxCell id="0" />
        <mxCell id="1" parent="0" />
        <mxCell id="7st48LrBUAfLuWchGHWn-1" value="&lt;b&gt;ALEXANDRA.EMPLOYEES&lt;/b&gt;&lt;br&gt;employee_id&lt;br&gt;first_name&lt;br&gt;last_name&lt;br&gt;email&lt;br&gt;phone_number&lt;br&gt;hire_date&lt;br&gt;job_id&lt;br&gt;salary&lt;br&gt;commission_pct&lt;br&gt;manager_id&lt;br&gt;department_id" style="whiteSpace=wrap;html=1;align=center;" vertex="1" parent="1">
          <mxGeometry x="350" y="140" width="180" height="190" as="geometry" />
        </mxCell>
        <mxCell id="7st48LrBUAfLuWchGHWn-2" value="&lt;b&gt;ALEXANDRA.REGIONS&lt;/b&gt;&lt;br&gt;region_id&lt;br&gt;region_name" style="whiteSpace=wrap;html=1;align=center;" vertex="1" parent="1">
          <mxGeometry x="610" y="270" width="160" height="60" as="geometry" />
        </mxCell>
        <mxCell id="7st48LrBUAfLuWchGHWn-3" value="&lt;b&gt;ALEXANDRA.COUNTRIES&lt;/b&gt;&lt;br&gt;country_id&lt;br&gt;country_name&lt;br&gt;region+id" style="whiteSpace=wrap;html=1;align=center;" vertex="1" parent="1">
          <mxGeometry x="610" y="160" width="160" height="70" as="geometry" />
        </mxCell>
        <mxCell id="7st48LrBUAfLuWchGHWn-4" value="&lt;b&gt;ALEXANDRA.LOCATIONS&lt;/b&gt;&lt;br&gt;location_id&lt;br&gt;street_address&lt;br&gt;postal_code&lt;br&gt;city&lt;br&gt;state_province&lt;br&gt;country_id" style="whiteSpace=wrap;html=1;align=center;" vertex="1" parent="1">
          <mxGeometry x="610" y="-20" width="160" height="110" as="geometry" />
        </mxCell>
        <mxCell id="7st48LrBUAfLuWchGHWn-5" value="&lt;b&gt;ALEXANDRA.JOBS&lt;/b&gt;&lt;br&gt;job_id&lt;br&gt;job_title&lt;br&gt;min_salary&lt;br&gt;max_salary" style="whiteSpace=wrap;html=1;align=center;" vertex="1" parent="1">
          <mxGeometry x="100" y="250" width="180" height="80" as="geometry" />
        </mxCell>
        <mxCell id="7st48LrBUAfLuWchGHWn-6" value="&lt;b&gt;ALEXANDRA.DEPARTMENTS&lt;/b&gt;&lt;br&gt;department_id&lt;br&gt;department_name&lt;br&gt;manager_id&lt;br&gt;location_id" style="whiteSpace=wrap;html=1;align=center;" vertex="1" parent="1">
          <mxGeometry x="350" y="-20" width="180" height="80" as="geometry" />
        </mxCell>
        <mxCell id="7st48LrBUAfLuWchGHWn-7" value="&lt;b&gt;ALEXANDRA.JOB_HISTORY&lt;/b&gt;&lt;br&gt;employee_id&lt;br&gt;start_date&lt;br&gt;end_date&lt;br&gt;job_id&lt;br&gt;department_id" style="whiteSpace=wrap;html=1;align=center;" vertex="1" parent="1">
          <mxGeometry x="100" y="20" width="180" height="100" as="geometry" />
        </mxCell>
      </root>
    </mxGraphModel>
  </diagram>
</mxfile>
